<svg xmlns="http://www.w3.org/2000/svg" width="25" height="24" viewBox="0 0 25 24" fill="none">
<path d="M9.625 11V20M9.625 11H5.225C4.665 11 4.385 11 4.171 11.109C3.98285 11.2049 3.82987 11.3578 3.734 11.546C3.625 11.76 3.625 12.04 3.625 12.6V20H9.625M9.625 11V5.6C9.625 5.04 9.625 4.76 9.734 4.546C9.82987 4.35785 9.98285 4.20487 10.171 4.109C10.385 4 10.665 4 11.225 4H14.025C14.585 4 14.865 4 15.079 4.109C15.267 4.205 15.419 4.358 15.516 4.546C15.625 4.76 15.625 5.04 15.625 5.6V8M9.625 20H15.625M15.625 8H20.025C20.585 8 20.865 8 21.08 8.109C21.2675 8.20504 21.4198 8.35803 21.515 8.546C21.625 8.76 21.625 9.04 21.625 9.6V20H15.625M15.625 8V20" stroke="currentColor" stroke-width="2" stroke-linecap="round" stroke-linejoin="round"/>
</svg>