<svg xmlns="http://www.w3.org/2000/svg" width="25" height="24" viewBox="0 0 25 24" fill="none">
<path d="M2.875 20H4.875M4.875 20H10.875M4.875 20V11.452C4.875 10.918 4.875 10.651 4.94 10.402C4.99756 10.1819 5.09225 9.97322 5.22 9.78497C5.365 9.57197 5.566 9.39497 5.968 9.04397L10.769 4.84197C11.515 4.18997 11.888 3.86397 12.307 3.73997C12.677 3.62997 13.072 3.62997 13.442 3.73997C13.862 3.86397 14.236 4.18997 14.982 4.84397L19.782 9.04397C20.184 9.39597 20.385 9.57197 20.53 9.78397C20.657 9.97397 20.752 10.182 20.81 10.402C20.875 10.651 20.875 10.918 20.875 11.452V20M10.875 20H14.875M10.875 20V16C10.875 15.4695 11.0857 14.9608 11.4608 14.5858C11.8359 14.2107 12.3446 14 12.875 14C13.4054 14 13.9141 14.2107 14.2892 14.5858C14.6643 14.9608 14.875 15.4695 14.875 16V20M20.875 20H14.875M20.875 20H22.875" stroke="currentColor" stroke-width="2" stroke-linecap="round" stroke-linejoin="round"/>
</svg>