<svg xmlns="http://www.w3.org/2000/svg" width="25" height="24" viewBox="0 0 25 24" fill="none">
<path d="M17.375 20C17.375 18.343 15.136 17 12.375 17C9.614 17 7.375 18.343 7.375 20M21.375 17C21.375 15.77 20.141 14.713 18.375 14.25M3.375 17C3.375 15.77 4.609 14.713 6.375 14.25M18.375 10.236C18.6713 9.97412 18.9128 9.65622 19.0858 9.30063C19.2588 8.94503 19.3597 8.55874 19.3829 8.16399C19.406 7.76923 19.3509 7.3738 19.2206 7.00042C19.0904 6.62705 18.8877 6.2831 18.624 5.98837C18.3604 5.69364 18.0411 5.45393 17.6845 5.28303C17.3279 5.11214 16.9411 5.01343 16.5462 4.99258C16.1513 4.97173 15.7562 5.02915 15.3836 5.16155C15.011 5.29394 14.6682 5.49869 14.375 5.76403M6.375 10.236C5.7873 9.70417 5.43396 8.96135 5.39217 8.16983C5.35038 7.3783 5.62353 6.6024 6.15196 6.01162C6.68039 5.42083 7.42114 5.06318 8.21241 5.01679C9.00368 4.9704 9.78116 5.23904 10.375 5.76403M12.375 14C11.981 14 11.5909 13.9224 11.2269 13.7717C10.863 13.6209 10.5323 13.3999 10.2537 13.1213C9.9751 12.8428 9.75413 12.5121 9.60336 12.1481C9.4526 11.7841 9.375 11.394 9.375 11C9.375 10.6061 9.4526 10.216 9.60336 9.85198C9.75413 9.488 9.9751 9.15728 10.2537 8.87871C10.5323 8.60013 10.863 8.37915 11.2269 8.22839C11.5909 8.07762 11.981 8.00003 12.375 8.00003C13.1706 8.00003 13.9337 8.3161 14.4963 8.87871C15.0589 9.44132 15.375 10.2044 15.375 11C15.375 11.7957 15.0589 12.5587 14.4963 13.1213C13.9337 13.684 13.1706 14 12.375 14Z" stroke="currentColor" stroke-width="2" stroke-linecap="round" stroke-linejoin="round"/>
</svg>